<svg xmlns="http://www.w3.org/2000/svg" width="186.2" height="186.2">
  <path fill="#fad8c5" stroke="#000" d="M35.3 83.7c1.3 18.3 3.6 32.3 7.4 48.8L63 175.7l23.4 8.7 23.4-4.8 15-15.2 8.7-30.2 7.4-18.8 12.3-26.7 6-25.6-5.9-32.8-19.3-17.6-42.6-9.9-31.7 12.5-16.8 27z"/>
  <path d="M82.9 186c-12.7-2-23-8.7-27.4-18.2l-3-6c-4.4-8.7-8-18-9.3-24.5-1.2-5.4-1.2-11.9 0-15.2a14 14 0 018.7-9c1.8-.8 2.7-.9 7.5-.9 4 0 6.2.2 8.3.7 5.3 1.2 6.8 3.6 10.2 15.5a41 41 0 005 13.6l1.2 1.3 3.1-.1c4.4-.2 6.9-1.4 8-3.8.7-1.4.8-2 .6-3.9a40 40 0 00-6.5-15.5c-2.5-3.9-2.3-4.5 1.4-8a50 50 0 0012.4-18.1c1-2.9.9-7.3-.1-9.5-1.5-3.4-5.8-6.4-10.2-7.3-6.4-1.2-12.5 3-17 12-1.6 3.2-3 4-5.3 2.8-1-.6-2.3-3.2-4.1-8.8a62.7 62.7 0 01-2.8-31.7c1-4 3.4-9 5.7-11.8A31.4 31.4 0 0188.5 29a70 70 0 0117 0c15.8 2.8 25.9 12.7 28.3 28 1 6 .4 16-1.3 24.1-.7 3.5-1 4.4-1.8 5-1.4 1.2-3 1.1-4.2-.2-1.3-1.3-1.3-2-.4-6.6 1.8-8.7 2-18.7.4-24.5C123 41.3 112 34.5 94.7 35.1A26 26 0 0081.9 38a21.3 21.3 0 00-11.2 12.6c-2.3 7.3-2 15.6.8 26.4l1 3.9c.2.1.9-.6 1.7-1.6 4.6-5.8 10.4-9 16.3-9a25 25 0 019.9 2.5c3 1.7 7 5.4 8.1 7.8 4.6 9.4 1.2 20.4-10.6 33.5l-2.7 3 1.1 1.8c2 3.4 4 7.6 5 10.5.8 2.3 1 3.4 1 7 0 3.8 0 4.3-1 6-2.6 5-7.6 7.4-15.3 7.4-4.2 0-5.3-.4-7.4-2.6-2.6-3-3.8-5.6-7-16.7-2.4-8.5-3.4-10.8-4.5-11-4.6-1-9-1.2-11.8-.5-2.8.7-4.4 1.9-5.5 4.2-2.2 4.8-.6 14.7 4.5 26.8 3.2 7.5 8.1 17 10 19.3A31.7 31.7 0 0086 179.6c6.6.8 15.7-.7 21.8-3.6 6.7-3.1 9-5.4 12.3-12.2a139 139 0 0010.2-29.8c2.5-10.1 4.4-15 9.5-25 5.4-10.5 7.7-15.8 10.4-24.2 10-30.2 5-54-14.3-67.7a47.5 47.5 0 00-18.5-7.7c-19.1-3.8-35.3-2.7-47.7 3A48.8 48.8 0 0044 46a90.2 90.2 0 00-2.8 28l.3 9.8c0 2-.7 3-2.7 3.4-1.7.3-3.1-1-3.6-3.1-.6-2.6-1-15.3-.6-20.8C36 38.5 45.2 20 60.9 9.7 70 3.8 82.5.5 95.6.5c10.6 0 24.7 2.2 32.2 5 9 3.3 18 10.1 23.5 17.5 10.3 14 13.1 31.7 8.4 52.5-2.5 11.2-6 20.4-14 36.5a95 95 0 00-9.7 26 140 140 0 01-10.2 29c-2.7 5.6-4.6 8-8.4 11-5 3.7-11.5 6.4-19 7.7-3.8.7-11.8.8-15.5.2z"/>
</svg>
